# exported with NifSkope

mtllib Pizzaboxtop.mtl

# Bottom

g Bottom
usemtl Material.000001

v 12.6953125 12.671875 0.1595458984375
v 12.6953125 12.671875 2.234375
v 12.6953125 -12.8046875 2.234375
v 12.6953125 -12.8046875 0.1595458984375
v -12.59375 12.671875 2.234375
v -12.59375 -12.8046875 2.234375
v -12.3515625 -12.5546875 2.234375
v -12.3515625 12.421875 2.234375
v -12.59375 12.671875 0.159423828125
v -12.59375 -12.8046875 0.159423828125
v -12.59375 12.671875 2.234375
v 12.6953125 12.671875 2.234375
v -12.3515625 12.421875 2.234375
v -12.3515625 -12.5546875 2.234375
v -12.3515625 -12.5546875 0.2265625
v -12.3515625 12.421875 0.2265625
v 0.04779052734375 -12.8046875 1.4765625
v 0.77783203125 -12.8046875 1.6083984375
v 12.4453125 12.421875 2.234375
v 12.4453125 -12.5546875 2.234375
v 12.4453125 12.421875 0.2265625
v 12.4453125 -12.5546875 0.2265625
v 12.4453125 -12.5546875 2.234375
v 12.4453125 12.421875 2.234375
v 12.4453125 12.421875 2.234375
v -12.3515625 12.421875 2.234375
v -12.3515625 12.421875 2.234375
v 12.4453125 12.421875 2.234375
v 0.77783203125 -12.8046875 1.6083984375
v 0.77783203125 -12.5546875 1.6083984375
v 0.04779052734375 -12.5546875 1.4765625
v 0.04779052734375 -12.8046875 1.4765625
v -1.2021484375 -12.8046875 2.234375
v -1.2021484375 -12.5546875 2.234375
v -12.3515625 -12.5546875 2.234375
v -12.59375 -12.8046875 2.234375
v -1.1123046875 -12.8046875 1.9453125
v -1.1123046875 -12.5546875 1.9453125
v -1.2021484375 -12.5546875 2.234375
v -1.2021484375 -12.8046875 2.234375
v -0.6826171875 -12.5546875 1.6083984375
v -0.6826171875 -12.8046875 1.6083984375
v 0.04779052734375 -12.5546875 1.4765625
v -0.6826171875 -12.5546875 1.6083984375
v 1.2080078125 -12.8046875 1.9453125
v 1.2080078125 -12.5546875 1.9453125
v 12.6953125 -12.8046875 2.234375
v 12.4453125 -12.5546875 2.234375
v 1.2978515625 -12.5546875 2.234375
v 1.2978515625 -12.8046875 2.234375
v 1.2978515625 -12.8046875 2.234375
v 1.2978515625 -12.5546875 2.234375
v 1.2080078125 -12.5546875 1.9453125
v 1.2080078125 -12.8046875 1.9453125
v -1.1123046875 -12.8046875 1.9453125
v -0.6826171875 -12.8046875 1.6083984375
v 1.2080078125 -12.8046875 1.9453125
v 1.2080078125 -12.5546875 1.9453125
v 1.2978515625 -12.5546875 2.234375
v -12.3515625 -12.5546875 2.234375
v -1.2021484375 -12.5546875 2.234375
v 0.77783203125 -12.5546875 1.6083984375
v -1.1123046875 -12.5546875 1.9453125
v 12.4453125 -12.5546875 2.234375
vt 0.9072265625 0.10107421875
vt 0.94091796875 0.10205078125
vt 0.94091796875 0.511962890625
vt 0.9072265625 0.51171875
vt 0.464599609375 0.10009765625
vt 0.464599609375 0.51220703125
vt 0.46044921875 0.508544921875
vt 0.46044921875 0.103515625
vt 0.498291015625 0.1005859375
vt 0.49853515625 0.51171875
vt 0.498291015625 0.06689453125
vt 0.9072265625 0.06689453125
vt 0.444580078125 0.597412109375
vt 0.444580078125 0.94012451171875
vt 0.417236328125 0.94012451171875
vt 0.416748046875 0.597412109375
vt 0.70263671875 0.532958984375
vt 0.71435546875 0.53515625
vt 0.94482421875 0.10595703125
vt 0.94482421875 0.508056640625
vt 0.07586669921875 0.597412109375
vt 0.07647705078125 0.940093994140625
vt 0.04833984375 0.94000244140625
vt 0.04833984375 0.597412109375
vt 0.07568359375 0.570556640625
vt 0.416259765625 0.570556640625
vt 0.50244140625 0.0625
vt 0.9033203125 0.0625
vt 0.426513671875 0.25341796875
vt 0.42236328125 0.25341796875
vt 0.42236328125 0.2412109375
vt 0.426513671875 0.2412109375
vt 0.681640625 0.545654296875
vt 0.68115234375 0.550048828125
vt 0.50341796875 0.550048828125
vt 0.4990234375 0.545654296875
vt 0.4306640625 0.2265625
vt 0.426513671875 0.2265625
vt 0.426513671875 0.2216796875
vt 0.4306640625 0.2216796875
vt 0.42236328125 0.22900390625
vt 0.426513671875 0.22900390625
vt 0.24658203125 0.957427978515625
vt 0.256591796875 0.959228515625
vt 0.426513671875 0.26025390625
vt 0.42236328125 0.26025390625
vt 0.90625 0.54541015625
vt 0.90185546875 0.549560546875
vt 0.72265625 0.549560546875
vt 0.72265625 0.54541015625
vt 0.434814453125 0.2265625
vt 0.4306640625 0.2265625
vt 0.4306640625 0.2216796875
vt 0.434814453125 0.2216796875
vt 0.68408203125 0.54052734375
vt 0.69091796875 0.53515625
vt 0.72119140625 0.54052734375
vt 0.2305908203125 0.9638671875
vt 0.2293701171875 0.96783447265625
vt 0.416748046875 0.96783447265625
vt 0.263671875 0.96783447265625
vt 0.236572265625 0.959228515625
vt 0.262451171875 0.9638671875
vt 0.076416015625 0.96783447265625
vn 0.16078431904315948 0.08235294371843338 -0.9843137264251709
vn 0.99215686321258545 0.0039215688593685627 0.12156862765550613
vn 0.99215686321258545 0.0039215688593685627 0.11372549086809158
vn 0.043137256056070328 -0.050980392843484879 -1
vn -0.99215686321258545 0.0039215688593685627 0.11372549086809158
vn -0.99215686321258545 0.0039215688593685627 0.12156862765550613
vn -0.0039215688593685627 -0.0039215688593685627 1
vn -0.0039215688593685627 0.0039215688593685627 1
vn -0.043137256056070328 0.08235294371843338 -0.99215686321258545
vn -0.16078431904315948 -0.10588235408067703 -0.9843137264251709
vn -0.0039215688593685627 0.97647058963775635 0.23137255012989044
vn -0.0039215688593685627 1 0.058823529630899429
vn 1 0.0039215688593685627 0.0039215688593685627
vn 1 0.0039215688593685627 0.0039215688593685627
vn 0.08235294371843338 0.050980392843484879 0.99215686321258545
vn 0.08235294371843338 -0.16078431904315948 0.9843137264251709
vn 0.0039215688593685627 -1 0.0039215688593685627
vn 0.0039215688593685627 -1 0.0039215688593685627
vn 0.0039215688593685627 0.0039215688593685627 1
vn 0.0039215688593685627 -0.0039215688593685627 1
vn -0.08235294371843338 -0.043137256056070328 0.99215686321258545
vn -0.08235294371843338 0.10588235408067703 0.99215686321258545
vn -1 0.0039215688593685627 -0.0039215688593685627
vn -1 0.0039215688593685627 -0.0039215688593685627
vn 0.0039215688593685627 -1 0.0039215688593685627
vn 0.0039215688593685627 -1 0.0039215688593685627
vn -0.0039215688593685627 0.0039215688593685627 1
vn 0.0039215688593685627 0.0039215688593685627 1
vn -0.30196079611778259 -0.0039215688593685627 0.9529411792755127
vn -0.45098039507865906 -0.0039215688593685627 0.89019608497619629
vn -0.058823529630899429 -0.0039215688593685627 1
vn 0.058823529630899429 -0.0039215688593685627 1
vn -0.0039215688593685627 -0.97647058963775635 0.20000000298023224
vn -0.0039215688593685627 0.0039215688593685627 1
vn -0.0039215688593685627 -0.0039215688593685627 1
vn -0.0039215688593685627 -0.99215686321258545 0.12156862765550613
vn 0.83529412746429443 0.0039215688593685627 0.55294120311737061
vn 0.70980393886566162 0.0039215688593685627 0.70196080207824707
vn 0.9529411792755127 0.0039215688593685627 0.29411765933036804
vn 0.9529411792755127 0.0039215688593685627 0.29411765933036804
vn 0.30196079611778259 0.0039215688593685627 0.9529411792755127
vn 0.45098039507865906 0.0039215688593685627 0.89019608497619629
vn 0.0039215688593685627 1 0.0039215688593685627
vn 0.0039215688593685627 1 0.0039215688593685627
vn -0.81960785388946533 -0.0039215688593685627 0.56862747669219971
vn -0.81960785388946533 0.0039215688593685627 0.56862747669219971
vn -0.0039215688593685627 -0.97647058963775635 0.23137255012989044
vn 0.0039215688593685627 -0.0039215688593685627 1
vn -0.0039215688593685627 -0.0039215688593685627 1
vn -0.0039215688593685627 -0.99215686321258545 0.10588235408067703
vn -0.9529411792755127 0.0039215688593685627 0.29411765933036804
vn -0.9529411792755127 0.0039215688593685627 0.29411765933036804
vn -0.81960785388946533 0.0039215688593685627 0.56862747669219971
vn -0.81960785388946533 -0.0039215688593685627 0.56862747669219971
vn 0.0039215688593685627 -1 0.0039215688593685627
vn 0.0039215688593685627 -1 0.0039215688593685627
vn 0.0039215688593685627 -1 0.0039215688593685627
vn 0.0039215688593685627 1 0.0039215688593685627
vn 0.0039215688593685627 1 0.0039215688593685627
vn 0.0039215688593685627 1 0.0039215688593685627
vn 0.0039215688593685627 1 0.0039215688593685627
vn 0.0039215688593685627 1 0.0039215688593685627
vn 0.0039215688593685627 1 0.0039215688593685627
vn 0.0039215688593685627 1 0.0039215688593685627
f 1/1/1 2/2/2 3/3/3
f 1/1/1 3/3/3 4/4/4
f 5/5/5 6/6/6 7/7/7
f 5/5/5 7/7/7 8/8/8
f 5/5/5 9/9/9 10/10/10
f 5/5/5 10/10/10 6/6/6
f 9/9/9 1/1/1 4/4/4
f 9/9/9 4/4/4 10/10/10
f 9/9/9 11/11/11 12/12/12
f 9/9/9 12/12/12 1/1/1
f 13/13/13 14/14/14 15/15/15
f 13/13/13 15/15/15 16/16/16
f 17/17/17 4/4/4 18/18/18
f 3/3/3 2/2/2 19/19/19
f 3/3/3 19/19/19 20/20/20
f 21/21/21 16/16/16 15/15/15
f 21/21/21 15/15/15 22/22/22
f 23/23/23 24/24/24 21/21/21
f 23/23/23 21/21/21 22/22/22
f 25/25/25 26/26/26 16/16/16
f 25/25/25 16/16/16 21/21/21
f 11/11/11 27/27/27 28/28/28
f 11/11/11 28/28/28 12/12/12
f 29/29/29 30/30/30 31/31/31
f 29/29/29 31/31/31 32/32/32
f 33/33/33 34/34/34 35/35/35
f 33/33/33 35/35/35 36/36/36
f 37/37/37 38/38/38 39/39/39
f 37/37/37 39/39/39 40/40/40
f 32/32/32 31/31/31 41/41/41
f 32/32/32 41/41/41 42/42/42
f 43/43/43 15/15/15 44/44/44
f 45/45/45 46/46/46 30/30/30
f 45/45/45 30/30/30 29/29/29
f 47/47/47 48/48/48 49/49/49
f 47/47/47 49/49/49 50/50/50
f 42/42/42 41/41/41 38/38/38
f 42/42/42 38/38/38 37/37/37
f 51/51/51 52/52/52 53/53/53
f 51/51/51 53/53/53 54/54/54
f 55/55/55 33/33/33 10/10/10
f 47/47/47 50/50/50 4/4/4
f 56/56/56 55/55/55 10/10/10
f 50/50/50 57/57/57 4/4/4
f 17/17/17 56/56/56 10/10/10
f 57/57/57 18/18/18 4/4/4
f 10/10/10 4/4/4 17/17/17
f 33/33/33 36/36/36 10/10/10
f 58/58/58 59/59/59 22/22/22
f 60/60/60 61/61/61 15/15/15
f 62/62/62 58/58/58 22/22/22
f 61/61/61 63/63/63 15/15/15
f 43/43/43 62/62/62 22/22/22
f 63/63/63 44/44/44 15/15/15
f 22/22/22 15/15/15 43/43/43
f 59/59/59 64/64/64 22/22/22
